# xmcd
#
# Track frame offsets: 
#        150
#        16706
#        33928
#        54200
#        77315
#        97568
#        116057
#        126112
#        146278
#        166198
#        181398
#
# Disc length: 2654 seconds
#
# Revision: 0
# Processed by: cddbd v1.5.2PL0 Copyright (c) Steve Scherf et al.
# Submitted via: ExactAudioCopy v1.0b3
#
DISCID=6f0a5c0b
DTITLE=Open Road - Oli Brown
DYEAR=2008
DGENRE=Blues
TTITLE0=Oli Brown - Psycho
TTITLE1=Oli Brown - Open Road
TTITLE2=Oli Brown - Stone Cold
TTITLE3=Oli Brown - Cant get next to you
TTITLE4=Oli Brown - Shade of grey
TTITLE5=Oli Brown - All the kings horses
TTITLE6=Oli Brown - Black Betty
TTITLE7=Oli Brown - Missing you
TTITLE8=Oli Brown - New groove
TTITLE9=Oli Brown - Played by the devil
TTITLE10=Oli Brown - Complicated
EXTD=
EXTT0=
EXTT1=
EXTT2=
EXTT3=
EXTT4=
EXTT5=
EXTT6=
EXTT7=
EXTT8=
EXTT9=
EXTT10=
PLAYORDER=
